/* XPM */
static char * pathwayConfigurationTool32_xpm[] = {
"32 32 304 2",
"  	c None",
". 	c #BBBABA",
"+ 	c #CAC9CA",
"@ 	c #C9C7C7",
"# 	c #F8F8F8",
"$ 	c #EFEFEF",
"% 	c #AAA8A8",
"& 	c #BFBEBE",
"* 	c #D8D7D8",
"= 	c #DBDADA",
"- 	c #DBDBDB",
"; 	c #E6E6E6",
"> 	c #CFCECE",
", 	c #D6D5D5",
"' 	c #D7D6D6",
") 	c #979596",
"! 	c #BCBABB",
"~ 	c #C2C1C1",
"{ 	c #C8C7C8",
"] 	c #A8A7A7",
"^ 	c #767475",
"/ 	c #F4F4F4",
"( 	c #D3D3D2",
"_ 	c #C1C0C0",
": 	c #DFDEDE",
"< 	c #AFAEAE",
"[ 	c #B6B5B5",
"} 	c #CDCCCC",
"| 	c #DAD9D9",
"1 	c #FFFEFE",
"2 	c #AAA6A6",
"3 	c #E8E8E8",
"4 	c #FBFBFB",
"5 	c #C6C3C4",
"6 	c #B7B6B6",
"7 	c #A4A2A2",
"8 	c #A3A0A1",
"9 	c #D8D6D7",
"0 	c #A9A5A6",
"a 	c #FFFFFF",
"b 	c #FEFEFE",
"c 	c #ECEBEB",
"d 	c #BDBBBC",
"e 	c #C7C6C6",
"f 	c #828081",
"g 	c #ACAAAA",
"h 	c #BCBBBC",
"i 	c #A9A6A8",
"j 	c #B5B4B4",
"k 	c #EDECED",
"l 	c #BEBDBD",
"m 	c #B4B3B3",
"n 	c #A8A6A7",
"o 	c #D8D7D7",
"p 	c #C0BFBF",
"q 	c #585657",
"r 	c #EDECEC",
"s 	c #D2D2D2",
"t 	c #B1B0B0",
"u 	c #AFAEAD",
"v 	c #D7D7D7",
"w 	c #AAA5A6",
"x 	c #C7C5C6",
"y 	c #E0DFE0",
"z 	c #949393",
"A 	c #504D4E",
"B 	c #8F8D8F",
"C 	c #A4A3A3",
"D 	c #D3D2D2",
"E 	c #C3C1C2",
"F 	c #ABA6A7",
"G 	c #ACABAB",
"H 	c #888687",
"I 	c #696768",
"J 	c #848283",
"K 	c #ECECEC",
"L 	c #DDDCDC",
"M 	c #B2B1B1",
"N 	c #325DA9",
"O 	c #9197A7",
"P 	c #B6B5B4",
"Q 	c #959394",
"R 	c #A6A5A5",
"S 	c #F9F9F9",
"T 	c #CAC8C9",
"U 	c #CECECE",
"V 	c #D8D6D6",
"W 	c #AAA6A7",
"X 	c #1255B7",
"Y 	c #0E45A9",
"Z 	c #2967CB",
"` 	c #6C80A8",
" .	c #ABA9A8",
"..	c #C1C0C1",
"+.	c #B4B2B3",
"@.	c #3251A1",
"#.	c #AE6276",
"$.	c #27378C",
"%.	c #256FD4",
"&.	c #094ABD",
"*.	c #6B7AA0",
"=.	c #DDDBD9",
"-.	c #AC8E99",
";.	c #E99EA1",
">.	c #B42526",
",.	c #BC211D",
"'.	c #6371B2",
").	c #0742B0",
"!.	c #3A4373",
"~.	c #FFDFDE",
"{.	c #E36767",
"].	c #B42727",
"^.	c #A01A1A",
"/.	c #CA3E3E",
"(.	c #3656A0",
"_.	c #EE8E8E",
":.	c #C93535",
"<.	c #E56969",
"[.	c #E15B5B",
"}.	c #E05F5F",
"|.	c #B43F3F",
"1.	c #3570BE",
"2.	c #4C437B",
"3.	c #AB1F1D",
"4.	c #9F1616",
"5.	c #C12B2B",
"6.	c #F4ACAC",
"7.	c #DA6363",
"8.	c #B52323",
"9.	c #A01616",
"0.	c #5286C7",
"a.	c #1A54B3",
"b.	c #002791",
"c.	c #64244A",
"d.	c #941312",
"e.	c #D04848",
"f.	c #BA3D3D",
"g.	c #E26565",
"h.	c #DB5353",
"i.	c #A21717",
"j.	c #981515",
"k.	c #6591CA",
"l.	c #2863BC",
"m.	c #002186",
"n.	c #0848B9",
"o.	c #156AD8",
"p.	c #885276",
"q.	c #963646",
"r.	c #A31616",
"s.	c #A71919",
"t.	c #E26B6B",
"u.	c #E36262",
"v.	c #C22E2E",
"w.	c #A31818",
"x.	c #991515",
"y.	c #618DC6",
"z.	c #3973C7",
"A.	c #001E82",
"B.	c #0643B5",
"C.	c #135CC8",
"D.	c #5996E0",
"E.	c #1157BE",
"F.	c #A31717",
"G.	c #B11E1E",
"H.	c #EA8484",
"I.	c #BD2929",
"J.	c #9B1616",
"K.	c #8E1313",
"L.	c #4678BB",
"M.	c #437FCF",
"N.	c #001C7F",
"O.	c #043EB1",
"P.	c #0F56C4",
"Q.	c #4F8FDF",
"R.	c #1C62C8",
"S.	c #0D43A1",
"T.	c #971414",
"U.	c #AA1B1B",
"V.	c #B52121",
"W.	c #EC8E8E",
"X.	c #E56D6D",
"Y.	c #BC2929",
"Z.	c #9F1515",
"`.	c #9D1616",
" +	c #901414",
".+	c #2B62B1",
"++	c #4282D4",
"@+	c #0239AD",
"#+	c #0D51C0",
"$+	c #4184DA",
"%+	c #2A70D0",
"&+	c #0E46A4",
"*+	c #971515",
"=+	c #9A1616",
"-+	c #B72222",
";+	c #EE9898",
">+	c #E57171",
",+	c #A01515",
"'+	c #931414",
")+	c #1E58AA",
"!+	c #347CD4",
"~+	c #001F81",
"{+	c #0135A8",
"]+	c #0A4CBC",
"^+	c #3378D6",
"/+	c #377BD5",
"(+	c #0E49AB",
"_+	c #A61B1B",
":+	c #991616",
"<+	c #B82323",
"[+	c #F0A1A1",
"}+	c #E67575",
"|+	c #BD2828",
"1+	c #981616",
"2+	c #1A53A7",
"3+	c #357FD8",
"4+	c #012587",
"5+	c #0031A5",
"6+	c #256CD0",
"7+	c #4385D9",
"8+	c #0D49AB",
"9+	c #831212",
"0+	c #B01E1E",
"a+	c #B92323",
"b+	c #F0A6A6",
"c+	c #E67676",
"d+	c #9D1717",
"e+	c #164FA5",
"f+	c #357CD6",
"g+	c #063395",
"h+	c #002EA1",
"i+	c #0744B5",
"j+	c #1961CB",
"k+	c #4D8CDC",
"l+	c #0D4CB2",
"m+	c #861414",
"n+	c #B22020",
"o+	c #BA2424",
"p+	c #F0A4A4",
"q+	c #A01717",
"r+	c #2E6FC9",
"s+	c #2263C4",
"t+	c #0632A2",
"u+	c #053FB3",
"v+	c #1158C6",
"w+	c #4F8DDB",
"x+	c #0F52BB",
"y+	c #0A3993",
"z+	c #8B1717",
"A+	c #B32121",
"B+	c #B92424",
"C+	c #EF9B9B",
"D+	c #9E1515",
"E+	c #2666C3",
"F+	c #286CCF",
"G+	c #2264CA",
"H+	c #4787DB",
"I+	c #1F62C7",
"J+	c #4887DA",
"K+	c #1558C1",
"L+	c #0A3994",
"M+	c #8C1717",
"N+	c #ED9191",
"O+	c #E46C6C",
"P+	c #B22222",
"Q+	c #144DA9",
"R+	c #2061C8",
"S+	c #1C61CA",
"T+	c #3676D1",
"U+	c #1E60C6",
"V+	c #093998",
"W+	c #861515",
"X+	c #B12020",
"Y+	c #B62222",
"Z+	c #EA8787",
"`+	c #B72626",
" @	c #CC3939",
".@	c #0E398F",
"+@	c #144DB9",
"@@	c #165FCA",
"#@	c #3E91E6",
"$@	c #195BC4",
"%@	c #083B9E",
"&@	c #831313",
"*@	c #A81A1A",
"=@	c #E78080",
"-@	c #E97878",
";@	c #E07070",
">@	c #144198",
",@	c #1F66CC",
"'@	c #5CA5EA",
")@	c #2765C8",
"!@	c #093A9C",
"~@	c #841212",
"{@	c #921515",
"]@	c #CE3636",
"^@	c #F5C8C7",
"/@	c #092A79",
"(@	c #0B3184",
"_@	c #072670",
":@	c #171717",
"<@	c #161616",
"[@	c #A21B1B",
"}@	c #AD3B3B",
"                                              . + @             ",
"  # $ %                                   & * = - ; >           ",
"  , # ' )                               ! & ~ { ] ^             ",
"    / ( >                             _ : < [ }                 ",
"      | 1 2                           3 4 5 6 >       7 8       ",
"          9 0                         a b c d e f g h i         ",
"            9 0                     j a a a k ~ < l m n         ",
"              o 0                   p a a h q r s t u           ",
"                v w                 x y z A B C D E             ",
"                  9 F               & & G H I J K L M           ",
"                    9 F           N O P m Q R S T U U           ",
"                      V W       X Y Z `  ...+.                  ",
"                        V F   @.#.$.%.&.*.                      ",
"                          =.-.;.>.,.'.).                        ",
"                          !.~.{.].^./.                          ",
"                        (._.:.<.[.}.|.                          ",
"                      1.2.3.4.5.6.7.8.9.                        ",
"                    0.a.b.c.d.e.f.g.h.8.i.j.                    ",
"                  k.l.m.n.o.p.q.r.s.t.u.v.w.x.                  ",
"                y.z.A.B.C.D.E.  j.F.G.H.{.I.9.J.K.              ",
"              L.M.N.O.P.Q.R.S.    T.U.V.W.X.Y.Z.`. +            ",
"            .+++N.@+#+$+%+&+        *+=+-+;+>+I.,+J.'+          ",
"          )+!+~+{+]+^+/+(+            _+:+<+[+}+|+,+J.1+        ",
"        2+3+4+5+n.6+7+8+              9+0+=+a+b+c+|+,+d+`.      ",
"      e+f+g+h+i+j+k+l+                  m+n+:+o+p+}+|+Z.q+      ",
"      r+s+t+u+v+w+x+y+                    z+A+1+B+C+>+I.D+_+    ",
"    E+F+G+H+I+J+K+L+                        M+A+1+<+N+O+I.j.P+  ",
"  Q+R+    S+T+U+V+                            W+X+1+Y+Z+{.`+ @  ",
"  .@+@@@  #@$@%@                                &@*@1+-+=@-@;@  ",
"    >@,@'@)@!@                                    ~@j.{@]@^@    ",
"      /@(@_@    :@:@:@<@:@:@:@:@:@:@:@:@<@:@:@:@      [@}@      ",
"                                                                "};
